<svg width="35" height="35" viewBox="0 0 35 35" fill="none" xmlns="http://www.w3.org/2000/svg">
<g clip-path="url(#clip0_101_86)">
<path d="M7.04222 31.2516C6.85028 33.5303 5.79493 34.7646 3.87607 34.9544C2.98061 34.9544 2.19707 34.6127 1.52547 33.929C0.885851 33.2075 0.56604 32.315 0.56604 31.2516V4.24967C0.598021 3.18631 0.933819 2.31283 1.57344 1.62924C2.21306 0.907659 2.98061 0.546875 3.87607 0.546875H6.22666H12.1272H23.9761C24.168 0.546875 24.3599 0.565864 24.5518 0.603841H24.8396C27.0783 0.679796 28.9172 1.28743 30.3563 2.42675C31.7955 3.56608 32.8349 4.8763 33.4745 6.35742C34.1141 7.80055 34.4339 9.26268 34.4339 10.7438C34.4339 12.2629 34.1141 13.763 33.4745 15.2441C32.8668 16.6873 31.8274 17.9785 30.3563 19.1179C28.9172 20.2571 27.0783 20.8648 24.8396 20.9408H16.3966C16.6525 22.8396 17.1802 24.2448 17.9797 25.1563C18.7472 26.0677 19.7227 26.5234 20.906 26.5234H31.2678C32.1633 26.5614 32.8988 26.9602 33.4745 27.7197C34.0821 28.4793 34.3859 29.3907 34.3859 30.4541C34.354 31.4795 34.0342 32.353 33.4265 33.0746C32.8509 33.7582 32.1313 34.1189 31.2678 34.1569H20.0424C17.6759 34.1949 15.5332 33.0935 13.6143 30.8529C11.6954 28.6122 10.5281 25.9538 10.1124 22.8776C9.53668 19.4596 9.24888 17.5418 9.24888 17.124C9.24888 16.0606 9.5527 15.1682 10.1604 14.4466C10.7999 13.687 11.5675 13.3073 12.463 13.3073H25.1275C25.7351 13.2693 26.2308 13.1174 26.6146 12.8516C27.0303 12.5477 27.3341 12.2249 27.526 11.8832C27.7179 11.5033 27.8139 11.1236 27.8139 10.7438C27.8139 10.364 27.7179 10.0033 27.526 9.66146C27.3341 9.28171 27.0303 8.95891 26.6146 8.69305C26.2308 8.38921 25.7351 8.21829 25.1275 8.18038H12.1272H8.28945C7.45792 8.21829 7.04222 8.71201 7.04222 9.66146V31.2516Z" fill="white"/>
</g>
<defs>
<clipPath id="clip0_101_86">
<rect width="35" height="35" fill="white"/>
</clipPath>
</defs>
</svg>
